<svg xmlns="http://www.w3.org/2000/svg" width="52" height="52" viewBox="0 0 52 52"><g transform="translate(-2459 -4457.389)"><circle cx="26" cy="26" r="26" transform="translate(2459 4457.389)" fill="#eb4125"/><path d="M2500.228,4488.772a9.866,9.866,0,0,0-7.209-9.486,11.629,11.629,0,1,0-21.634,6.415l-1.57,5.675,5.675-1.569a11.586,11.586,0,0,0,5.407,1.6,9.846,9.846,0,0,0,14.5,5.841l4.793,1.326-1.326-4.793A9.8,9.8,0,0,0,2500.228,4488.772Zm-24.456-.9-3.4.94.94-3.4-.214-.336a9.843,9.843,0,1,1,3.007,3.007Zm21.854,8.138-2.521-.7-.337.219a8.063,8.063,0,0,1-12.026-4.2,11.651,11.651,0,0,0,10.211-10.21,8.064,8.064,0,0,1,4.194,12.026l-.219.336Z" fill="#fff"/><path d="M2480.509,4484.281h1.784v1.785h-1.784Z" fill="#fff"/><path d="M2483.186,4477.084a1.769,1.769,0,0,1-.581,1.317l-2.1,1.918v2.178h1.784V4481.1l1.517-1.388a3.569,3.569,0,1,0-5.978-2.633h1.785a1.785,1.785,0,1,1,3.569,0Z" fill="#fff"/></g></svg>