<svg xmlns="http://www.w3.org/2000/svg" width="27.27" height="27.27" viewBox="0 0 27.27 27.27">
  <g id="Сгруппировать_129" data-name="Сгруппировать 129" transform="translate(1950.994 -3805.316)">
    <path id="Контур_238" data-name="Контур 238" d="M-1924.1,3816.974l-12.381-11.255-.118-.107a1.171,1.171,0,0,0-.265-.181l-.013,0a1.135,1.135,0,0,0-.973,0l-.013,0a1.193,1.193,0,0,0-.265.181l-.116.1-12.382,11.257a1.136,1.136,0,0,0-.077,1.6,1.138,1.138,0,0,0,1.606.076l.371-.338v13.132a1.137,1.137,0,0,0,1.137,1.137h20.452a1.137,1.137,0,0,0,1.136-1.137v-13.132l.372.338a1.137,1.137,0,0,0,1.6-.076A1.137,1.137,0,0,0-1924.1,3816.974Zm-15.536,13.339V3823.5a2.273,2.273,0,0,1,2.273-2.273,2.272,2.272,0,0,1,2.272,2.273v6.817Zm11.363,0h-4.545V3823.5a4.545,4.545,0,0,0-4.545-4.545,4.544,4.544,0,0,0-4.545,4.545v6.817h-4.545v-14.061l9.09-8.264,9.09,8.264Z" fill="#aeb0b3"/>
  </g>
</svg>
