<?xml version="1.0" encoding="utf-8"?>
<!-- Generator: Adobe Illustrator 23.0.3, SVG Export Plug-In . SVG Version: 6.00 Build 0)  -->
<svg version="1.1" id="Слой_1" xmlns="http://www.w3.org/2000/svg" xmlns:xlink="http://www.w3.org/1999/xlink" x="0px" y="0px"
	 viewBox="0 0 38.5 38.4" style="enable-background:new 0 0 38.5 38.4;" xml:space="preserve">
<style type="text/css">
	.st0{fill:#FFFFFF;}
</style>
<g id="Сгруппировать_56" transform="translate(2945.13 -6848.042)">
	<path id="Контур_105" class="st0" d="M-2912.3,6853.7c-3.6-3.6-8.5-5.6-13.6-5.6c-5.1,0-10,2-13.6,5.6
		c-3.6,3.6-5.6,8.5-5.6,13.6c0,5.1,2,10,5.6,13.6c3.6,3.6,8.5,5.6,13.6,5.6c2.7,0.1,5.4-0.5,7.9-1.6c1.8-0.8,3.3-2.2,4.2-4
		c0.8-1.9,0.3-4-1.2-5.4l-0.1-0.1c0,0,0.1-0.1,0.1-0.1c1-1,1.1-2.6,0.1-3.7c0-0.1-0.1-0.1-0.2-0.2l-2.7-2.7
		c-0.5-0.5-1.2-0.8-1.9-0.9c-0.7,0-1.4,0.3-1.9,0.8l-1.4,1.4c-0.1,0-0.1-0.1-0.2-0.1c-0.2-0.1-0.3-0.2-0.5-0.3c-1.5-1-2.9-2.2-4-3.7
		c-0.5-0.6-0.9-1.2-1.2-1.9c0.4-0.3,0.7-0.7,1-1c0.1-0.1,0.3-0.3,0.4-0.4c1.1-0.9,1.2-2.5,0.3-3.6c-0.1-0.1-0.2-0.2-0.3-0.3
		l-1.4-1.4c-0.2-0.2-0.3-0.3-0.5-0.5c-0.3-0.3-0.6-0.6-0.9-0.9c-0.5-0.5-1.2-0.8-1.9-0.8c-0.7,0-1.4,0.3-1.9,0.8l0,0l-1.7,1.7
		c-0.7,0.7-1.1,1.5-1.2,2.5c-0.1,1.3,0.2,2.6,0.7,3.8c0.9,2.3,2.2,4.5,3.8,6.4c2.2,2.6,4.8,4.7,7.9,6.2c1.4,0.7,2.9,1.2,4.5,1.3
		c0.1,0,0.2,0,0.3,0c1.2,0,2.3-0.5,3.1-1.3l0,0c0,0,0.1-0.1,0.1-0.1l0,0c1,0.8,1.3,2.2,0.8,3.3c-0.9,2.2-4.4,4.4-10.3,4.4
		c-9.6,0-17.3-7.8-17.3-17.3c0-9.6,7.8-17.3,17.3-17.3c9.6,0,17.3,7.8,17.3,17.3c0,1.6-0.2,3.1-0.6,4.6c-0.1,0.5,0.2,1,0.7,1.2
		c0.5,0.1,1-0.2,1.2-0.7c0.5-1.7,0.7-3.4,0.7-5.1C-2906.7,6862.2-2908.7,6857.3-2912.3,6853.7z M-2918,6875.7
		c-0.4,0.5-1,0.7-1.7,0.7c-0.1,0-0.1,0-0.2,0c-1.3-0.1-2.6-0.5-3.8-1.1c-2.8-1.4-5.3-3.3-7.2-5.7c-1.5-1.7-2.7-3.7-3.5-5.9
		c-0.4-0.9-0.6-2-0.5-3c0-0.5,0.3-1,0.6-1.3l1.7-1.7c0.1-0.2,0.3-0.3,0.6-0.3c0.2,0,0.4,0.1,0.5,0.3l0,0c0.3,0.3,0.6,0.6,0.9,0.9
		c0.2,0.2,0.3,0.3,0.5,0.5l1.4,1.4c0.3,0.2,0.4,0.6,0.2,0.9c-0.1,0.1-0.1,0.2-0.2,0.2l-0.4,0.4c-0.4,0.4-0.8,0.8-1.2,1.2
		c0,0,0,0,0,0c-0.4,0.4-0.5,0.9-0.3,1.4c0,0,0,0,0,0.1c0.4,1,1,1.9,1.6,2.7l0,0c1.3,1.6,2.8,3,4.5,4.1c0.2,0.1,0.4,0.2,0.6,0.3
		c0.2,0.1,0.3,0.2,0.5,0.3c0,0,0.1,0,0.1,0c0.2,0.1,0.4,0.1,0.6,0.2c0.4,0,0.7-0.2,0.9-0.4l1.7-1.7c0.1-0.2,0.3-0.3,0.6-0.3
		c0.2,0,0.4,0.1,0.5,0.3l0,0l2.7,2.7c0.3,0.2,0.4,0.7,0.1,1c0,0.1-0.1,0.1-0.2,0.2l0,0c-0.2,0.2-0.4,0.4-0.6,0.6
		C-2917.3,6875-2917.7,6875.3-2918,6875.7L-2918,6875.7z"/>
</g>
</svg>
